<?xml version="1.0" encoding="iso-8859-1"?>
<!-- Uploaded to: SVG Repo, www.svgrepo.com, Generator: SVG Repo Mixer Tools -->
<svg version="1.1" id="Layer_1" xmlns="http://www.w3.org/2000/svg" xmlns:xlink="http://www.w3.org/1999/xlink" 
	 viewBox="0 0 512 512" xml:space="preserve">
<circle style="fill:#FF5419;" cx="256" cy="256" r="256"/>
<path style="fill:#C92F00;" d="M134.325,337.401l170.02,170.02c102.64-19.62,183.51-100.516,203.092-203.169L378.859,175.673
	l-32.035,35.047l-66.396-66.396l-29.537,45.08l60.302,60.302l-3.089,3.379L134.325,337.401z"/>
<path style="fill:#FFEDB5;" d="M366.689,341.333H145.31c-9.561,0-17.31-7.751-17.31-17.311V187.976c0-9.559,7.749-17.31,17.31-17.31
	h221.379c9.561,0,17.311,7.751,17.311,17.31v136.045C384,333.583,376.249,341.333,366.689,341.333z"/>
<path style="fill:#FEE187;" d="M366.689,170.667H256v170.667h110.689c9.561,0,17.311-7.751,17.311-17.311V187.976
	C384,178.417,376.249,170.667,366.689,170.667z"/>
<path style="fill:#02B2B2;" d="M274.244,199.111h-36.488c-5.634,0-10.2-4.567-10.2-10.2v-36.488c0-5.634,4.567-10.2,10.2-10.2
	h36.488c5.634,0,10.2,4.567,10.2,10.2v36.488C284.444,194.544,279.878,199.111,274.244,199.111z"/>
<path style="fill:#386895;" d="M274.244,142.222H256v56.889h18.244c5.634,0,10.2-4.567,10.2-10.2v-36.488
	C284.444,146.789,279.878,142.222,274.244,142.222z"/>
<rect x="270.222" y="227.556" style="fill:#FFC61B;" width="85.333" height="85.333"/>
<g>
	<path style="fill:#A6A8AA;" d="M223.956,264.62H145.82c-1.988,0-3.598-1.612-3.598-3.598V259.6c0-1.988,1.612-3.598,3.598-3.598
		h78.136c1.988,0,3.598,1.612,3.598,3.598v1.422C227.556,263.008,225.944,264.62,223.956,264.62z"/>
	<path style="fill:#A6A8AA;" d="M223.956,302.976H145.82c-1.988,0-3.598-1.612-3.598-3.598v-1.422c0-1.988,1.612-3.598,3.598-3.598
		h78.136c1.988,0,3.598,1.612,3.598,3.598v1.422C227.556,301.365,225.944,302.976,223.956,302.976z"/>
	<path style="fill:#A6A8AA;" d="M223.956,283.152H145.82c-1.988,0-3.598-1.612-3.598-3.598v-1.422c0-1.988,1.612-3.598,3.598-3.598
		h78.136c1.988,0,3.598,1.612,3.598,3.598v1.422C227.556,281.54,225.944,283.152,223.956,283.152z"/>
</g>
</svg>